<?xml version="1.0" encoding="UTF-8" standalone="no"?>
<!-- Generator: Adobe Illustrator 13.0.0, SVG Export Plug-In . SVG Version: 6.00 Build 14948)  -->
<svg
   xmlns:dc="http://purl.org/dc/elements/1.1/"
   xmlns:cc="http://creativecommons.org/ns#"
   xmlns:rdf="http://www.w3.org/1999/02/22-rdf-syntax-ns#"
   xmlns:svg="http://www.w3.org/2000/svg"
   xmlns="http://www.w3.org/2000/svg"
   xmlns:sodipodi="http://sodipodi.sourceforge.net/DTD/sodipodi-0.dtd"
   xmlns:inkscape="http://www.inkscape.org/namespaces/inkscape"
   version="1.1"
   id="Layer_1"
   x="0px"
   y="0px"
   width="800px"
   height="600px"
   viewBox="0 0 800 600"
   enable-background="new 0 0 800 600"
   xml:space="preserve"
   sodipodi:version="0.32"
   inkscape:version="0.46"
   sodipodi:docname="logo_plifk_long.svg"
   inkscape:output_extension="org.inkscape.output.svg.inkscape"
   inkscape:export-filename="/home/henvic/Documents/plifk/logo/logo_plifk_long-b.png"
   inkscape:export-xdpi="1536.9407"
   inkscape:export-ydpi="1536.9407"><metadata
   id="metadata18"><rdf:RDF><cc:Work
       rdf:about=""><dc:format>image/svg+xml</dc:format><dc:type
         rdf:resource="http://purl.org/dc/dcmitype/StillImage" /></cc:Work></rdf:RDF></metadata><defs
   id="defs16"><inkscape:perspective
     sodipodi:type="inkscape:persp3d"
     inkscape:vp_x="0 : 300 : 1"
     inkscape:vp_y="0 : 1000 : 0"
     inkscape:vp_z="800 : 300 : 1"
     inkscape:persp3d-origin="400 : 200 : 1"
     id="perspective20" /></defs><sodipodi:namedview
   inkscape:window-height="740"
   inkscape:window-width="1280"
   inkscape:pageshadow="2"
   inkscape:pageopacity="0.0"
   guidetolerance="10.0"
   gridtolerance="10.0"
   objecttolerance="10.0"
   borderopacity="1.0"
   bordercolor="#666666"
   pagecolor="#ffffff"
   id="base"
   showgrid="false"
   inkscape:zoom="0.67625"
   inkscape:cx="524.17118"
   inkscape:cy="318.8378"
   inkscape:window-x="-5"
   inkscape:window-y="-3"
   inkscape:current-layer="Layer_1" />
<path
   d="M 29.29525,278.57 L 29.29525,358.664 L 4.46875,358.664 L 4.46875,146.75 L 62.69125,146.75 C 85.35175,146.75 102.91075,152.2685 115.37275,163.304 C 127.83775,174.338 134.06875,189.9005 134.06875,209.999 C 134.06875,230.0975 127.14625,246.5525 113.30575,259.358 C 99.46375,272.1635 80.76925,278.57 57.22525,278.57 L 29.29525,278.57 z M 29.29525,169.2155 L 29.29525,256.1045 L 55.30375,256.1045 C 72.44725,256.1045 85.52425,252.188 94.53925,244.3565 C 103.55575,236.528 108.06175,225.4685 108.06175,211.1825 C 108.06175,183.2015 91.51075,169.2155 58.40875,169.2155 L 29.29525,169.2155 L 29.29525,169.2155 z"
   id="path3" />
<path
   d="M 241.95475,319.145 C 241.95475,332.1995 246.99925,338.729 257.08975,338.729 C 261.16525,338.729 264.81925,338.2205 268.06375,337.2005 L 268.06375,357.749 C 266.30275,358.2155 263.96425,358.652 261.04825,359.072 C 258.13225,359.4875 255.05425,359.6975 251.81425,359.6975 C 247.27825,359.6975 243.01675,358.9535 239.03725,357.4775 C 235.05625,355.9955 231.60775,353.7245 228.69175,350.669 C 225.77575,347.615 223.46125,343.799 221.74825,339.2135 C 220.03375,334.628 219.18025,329.2835 219.18025,323.174 L 219.18025,148.34 L 241.95475,148.34 L 241.95475,319.145 L 241.95475,319.145 z"
   id="path5" />
<path
   d="M 370.41775,180.554 C 366.34075,180.554 362.87275,179.165 360.00025,176.3885 C 357.13225,173.612 355.69675,170.0945 355.69675,165.8345 C 355.69675,161.5775 357.13225,158.0375 360.00025,155.21 C 362.87275,152.3885 366.34225,150.977 370.41775,150.977 C 374.58175,150.977 378.12775,152.3885 381.04075,155.21 C 383.95675,158.0375 385.41325,161.579 385.41325,165.8345 C 385.41325,169.9115 383.95675,173.384 381.04075,176.249 C 378.12775,179.1215 374.58325,180.554 370.41775,180.554 z M 381.52525,319.145 C 381.52525,332.1995 386.57425,338.729 396.66475,338.729 C 400.73725,338.729 404.39425,338.2205 407.63425,337.2005 L 407.63425,357.749 C 405.87775,358.2155 403.54075,358.652 400.62025,359.072 C 397.70725,359.4875 394.62775,359.6975 391.38625,359.6975 C 386.85475,359.6975 382.59025,358.9535 378.61225,357.4775 C 374.63125,355.9955 371.18275,353.7245 368.26225,350.669 C 365.35075,347.615 363.03475,343.799 361.32175,339.2135 C 359.60425,334.628 358.75225,329.2835 358.75225,323.174 L 358.75225,216.662 L 381.52525,216.662 L 381.52525,319.145 z"
   id="path7" />
<path
   d="M 570.12025,168.335 C 565.67575,165.8345 560.63125,164.5835 554.98525,164.5835 C 539.06275,164.5835 531.09625,174.6335 531.09625,194.7215 L 531.09625,216.662 L 564.42775,216.662 L 564.42775,236.102 L 531.09775,236.102 L 531.09775,358.862 L 508.46425,358.862 L 508.46425,236.102 L 484.16125,236.102 L 484.16125,216.662 L 508.46425,216.662 L 508.46425,193.6085 C 508.46425,178.706 512.76925,166.9235 521.37925,158.2655 C 529.98475,149.6075 540.72625,145.283 553.59475,145.283 C 560.54275,145.283 566.04475,146.1155 570.12175,147.7805 L 570.12175,168.335 L 570.12025,168.335 z"
   id="path9" />
<path
   d="M 773.24725,358.346 L 757.58425,374.006 L 679.70125,290.5385 L 679.14175,290.5385 L 679.27375,374.585 L 656.36275,352.835 L 656.37025,148.337 L 679.14325,148.337 L 679.14325,281.7875 L 679.70275,281.7875 L 739.41475,216.659 L 769.27225,216.659 L 703.30675,285.26 L 773.24725,358.346 z"
   id="path11" />
<polygon
   points="522.73,403.223 480.06,360.551 480.137,339.859 521.68,381.582 562.159,341.939 573.245,353.028 522.73,403.223 "
   id="polygon13"
   inkscape:export-xdpi="763.14587"
   inkscape:export-ydpi="763.14587"
   transform="matrix(1.5,0,0,1.5,-64.86725,-150.0235)"
   style="fill:#29abe2" />
</svg>