<?xml version="1.0" encoding="UTF-8" standalone="no"?>
<!-- Generator: Adobe Illustrator 13.0.0, SVG Export Plug-In . SVG Version: 6.00 Build 14948)  -->
<svg
   xmlns:dc="http://purl.org/dc/elements/1.1/"
   xmlns:cc="http://creativecommons.org/ns#"
   xmlns:rdf="http://www.w3.org/1999/02/22-rdf-syntax-ns#"
   xmlns:svg="http://www.w3.org/2000/svg"
   xmlns="http://www.w3.org/2000/svg"
   xmlns:sodipodi="http://sodipodi.sourceforge.net/DTD/sodipodi-0.dtd"
   xmlns:inkscape="http://www.inkscape.org/namespaces/inkscape"
   version="1.1"
   id="Layer_1"
   x="0px"
   y="0px"
   width="800px"
   height="600px"
   viewBox="0 0 800 600"
   enable-background="new 0 0 800 600"
   xml:space="preserve"
   sodipodi:version="0.32"
   inkscape:version="0.46"
   sodipodi:docname="logo_plifk_long.svg"
   inkscape:output_extension="org.inkscape.output.svg.inkscape"
   inkscape:export-filename="/home/henvic/Documents/plifk/logo/logo_plifk_long-min.png"
   inkscape:export-xdpi="24.679127"
   inkscape:export-ydpi="24.679127"><metadata
   id="metadata18"><rdf:RDF><cc:Work
       rdf:about=""><dc:format>image/svg+xml</dc:format><dc:type
         rdf:resource="http://purl.org/dc/dcmitype/StillImage" /></cc:Work></rdf:RDF></metadata><defs
   id="defs16"><inkscape:perspective
     sodipodi:type="inkscape:persp3d"
     inkscape:vp_x="0 : 300 : 1"
     inkscape:vp_y="0 : 1000 : 0"
     inkscape:vp_z="800 : 300 : 1"
     inkscape:persp3d-origin="400 : 200 : 1"
     id="perspective20" /></defs><sodipodi:namedview
   inkscape:window-height="740"
   inkscape:window-width="1280"
   inkscape:pageshadow="2"
   inkscape:pageopacity="0.0"
   guidetolerance="10.0"
   gridtolerance="10.0"
   objecttolerance="10.0"
   borderopacity="1.0"
   bordercolor="#666666"
   pagecolor="#ffffff"
   id="base"
   showgrid="false"
   inkscape:zoom="0.67625"
   inkscape:cx="495.76509"
   inkscape:cy="287.47283"
   inkscape:window-x="-5"
   inkscape:window-y="-3"
   inkscape:current-layer="Layer_1" />
<path
   d="M 172.775,285.729 L 172.775,339.125 L 156.224,339.125 L 156.224,197.849 L 195.039,197.849 C 210.146,197.849 221.852,201.528 230.16,208.885 C 238.47,216.241 242.624,226.616 242.624,240.015 C 242.624,253.414 238.009,264.384 228.782,272.921 C 219.554,281.458 207.091,285.729 191.395,285.729 L 172.775,285.729 z M 172.775,212.826 L 172.775,270.752 L 190.114,270.752 C 201.543,270.752 210.261,268.141 216.271,262.92 C 222.282,257.701 225.286,250.328 225.286,240.804 C 225.286,222.15 214.252,212.826 192.184,212.826 L 172.775,212.826 L 172.775,212.826 z"
   id="path3" />
<path
   d="M 314.548,312.779 C 314.548,321.482 317.911,325.835 324.638,325.835 C 327.355,325.835 329.791,325.496 331.954,324.816 L 331.954,338.515 C 330.78,338.826 329.221,339.117 327.277,339.397 C 325.333,339.674 323.281,339.814 321.121,339.814 C 318.097,339.814 315.256,339.318 312.603,338.334 C 309.949,337.346 307.65,335.832 305.706,333.795 C 303.762,331.759 302.219,329.215 301.077,326.158 C 299.934,323.101 299.365,319.538 299.365,315.465 L 299.365,198.909 L 314.548,198.909 L 314.548,312.779 L 314.548,312.779 z"
   id="path5" />
<path
   d="M 400.19,220.385 C 397.472,220.385 395.16,219.459 393.245,217.608 C 391.333,215.757 390.376,213.412 390.376,210.572 C 390.376,207.734 391.333,205.374 393.245,203.489 C 395.16,201.608 397.473,200.667 400.19,200.667 C 402.966,200.667 405.33,201.608 407.272,203.489 C 409.216,205.374 410.187,207.735 410.187,210.572 C 410.187,213.29 409.216,215.605 407.272,217.515 C 405.33,219.43 402.967,220.385 400.19,220.385 z M 407.595,312.779 C 407.595,321.482 410.961,325.835 417.688,325.835 C 420.403,325.835 422.841,325.496 425.001,324.816 L 425.001,338.515 C 423.83,338.826 422.272,339.117 420.325,339.397 C 418.383,339.674 416.33,339.814 414.169,339.814 C 411.148,339.814 408.305,339.318 405.653,338.334 C 402.999,337.346 400.7,335.832 398.753,333.795 C 396.812,331.759 395.268,329.215 394.126,326.158 C 392.981,323.101 392.413,319.538 392.413,315.465 L 392.413,244.457 L 407.595,244.457 L 407.595,312.779 z"
   id="path7" />
<path
   d="M 533.325,212.239 C 530.362,210.572 526.999,209.738 523.235,209.738 C 512.62,209.738 507.309,216.438 507.309,229.83 L 507.309,244.457 L 529.53,244.457 L 529.53,257.417 L 507.31,257.417 L 507.31,339.257 L 492.221,339.257 L 492.221,257.417 L 476.019,257.417 L 476.019,244.457 L 492.221,244.457 L 492.221,229.088 C 492.221,219.153 495.091,211.298 500.831,205.526 C 506.568,199.754 513.729,196.871 522.308,196.871 C 526.94,196.871 530.608,197.426 533.326,198.536 L 533.326,212.239 L 533.325,212.239 z"
   id="path9" />
<path
   d="M 668.743,338.913 L 658.301,349.353 L 606.379,293.708 L 606.006,293.708 L 606.094,349.739 L 590.82,335.239 L 590.825,198.907 L 606.007,198.907 L 606.007,287.874 L 606.38,287.874 L 646.188,244.455 L 666.093,244.455 L 622.116,290.189 L 668.743,338.913 z"
   id="path11" />
<polygon
   points="522.73,403.223 480.06,360.551 480.137,339.859 521.68,381.582 562.159,341.939 573.245,353.028 522.73,403.223 "
   id="polygon13"
   inkscape:export-xdpi="763.14587"
   inkscape:export-ydpi="763.14587"
   transform="translate(110,0)"
   style="fill:#29abe2" />
</svg>