<?xml version="1.0" encoding="utf-8"?>
<!-- Generator: Adobe Illustrator 13.0.0, SVG Export Plug-In . SVG Version: 6.00 Build 14948)  -->
<!DOCTYPE svg PUBLIC "-//W3C//DTD SVG 1.1//EN" "http://www.w3.org/Graphics/SVG/1.1/DTD/svg11.dtd">
<svg version="1.1" id="Layer_1" xmlns="http://www.w3.org/2000/svg" xmlns:xlink="http://www.w3.org/1999/xlink" x="0px" y="0px"
	 width="800px" height="600px" viewBox="0 0 800 600" enable-background="new 0 0 800 600" xml:space="preserve">
<path d="M242.775,285.729v53.396h-16.551V197.849h38.815c15.107,0,26.813,3.679,35.121,11.036
	c8.31,7.356,12.464,17.731,12.464,31.13s-4.615,24.369-13.842,32.906c-9.228,8.537-21.691,12.808-37.387,12.808H242.775z
	 M242.775,212.826v57.926h17.339c11.429,0,20.147-2.611,26.157-7.832c6.011-5.219,9.015-12.592,9.015-22.116
	c0-18.654-11.034-27.978-33.102-27.978H242.775z"/>
<path d="M339.548,312.779c0,8.703,3.363,13.056,10.09,13.056c2.717,0,5.153-0.339,7.316-1.019v13.699
	c-1.174,0.311-2.733,0.602-4.677,0.882c-1.944,0.277-3.996,0.417-6.156,0.417c-3.024,0-5.865-0.496-8.518-1.48
	c-2.654-0.988-4.953-2.502-6.897-4.539c-1.944-2.036-3.487-4.58-4.629-7.637c-1.143-3.057-1.712-6.62-1.712-10.693V198.909h15.183
	V312.779z"/>
<path d="M380.19,220.385c-2.718,0-5.03-0.926-6.945-2.777c-1.912-1.851-2.869-4.196-2.869-7.036c0-2.838,0.957-5.198,2.869-7.083
	c1.915-1.881,4.228-2.822,6.945-2.822c2.776,0,5.14,0.941,7.082,2.822c1.944,1.885,2.915,4.246,2.915,7.083
	c0,2.718-0.971,5.033-2.915,6.943C385.33,219.43,382.967,220.385,380.19,220.385z M387.595,312.779
	c0,8.703,3.366,13.056,10.093,13.056c2.715,0,5.153-0.339,7.313-1.019v13.699c-1.171,0.311-2.729,0.602-4.676,0.882
	c-1.942,0.277-3.995,0.417-6.156,0.417c-3.021,0-5.864-0.496-8.516-1.48c-2.654-0.988-4.953-2.502-6.9-4.539
	c-1.941-2.036-3.485-4.58-4.627-7.637c-1.145-3.057-1.713-6.62-1.713-10.693v-71.008h15.182V312.779z"/>
<path d="M468.325,212.239c-2.963-1.667-6.326-2.501-10.09-2.501c-10.615,0-15.926,6.7-15.926,20.092v14.627h22.221v12.96H442.31
	v81.84h-15.089v-81.84h-16.202v-12.96h16.202v-15.369c0-9.935,2.87-17.79,8.61-23.562c5.737-5.772,12.898-8.655,21.477-8.655
	c4.632,0,8.3,0.555,11.018,1.665V212.239z"/>
<path d="M558.743,338.913l-10.442,10.44l-51.922-55.645h-0.373l0.088,56.031l-15.274-14.5l0.005-136.332h15.182v88.967h0.373
	l39.808-43.419h19.905l-43.977,45.734L558.743,338.913z"/>
<polygon fill="#29ABE2" points="522.73,403.223 480.06,360.551 480.137,339.859 521.68,381.582 562.159,341.939 573.245,353.028 "/>
</svg>
